<!--<svg xmlns="http://www.w3.org/2000/svg" viewBox="0 0 841.9 595.3">-->
    <!--<g fill="#61DAFB">-->
        <!--<path d="M666.3 296.5c0-32.5-40.7-63.3-103.1-82.4 14.4-63.6 8-114.2-20.2-130.4-6.5-3.8-14.1-5.6-22.4-5.6v22.3c4.6 0 8.3.9 11.4 2.6 13.6 7.8 19.5 37.5 14.9 75.7-1.1 9.4-2.9 19.3-5.1 29.4-19.6-4.8-41-8.5-63.5-10.9-13.5-18.5-27.5-35.3-41.6-50 32.6-30.3 63.2-46.9 84-46.9V78c-27.5 0-63.5 19.6-99.9 53.6-36.4-33.8-72.4-53.2-99.9-53.2v22.3c20.7 0 51.4 16.5 84 46.6-14 14.7-28 31.4-41.3 49.9-22.6 2.4-44 6.1-63.6 11-2.3-10-4-19.7-5.2-29-4.7-38.2 1.1-67.9 14.6-75.8 3-1.8 6.9-2.6 11.5-2.6V78.5c-8.4 0-16 1.8-22.6 5.6-28.1 16.2-34.4 66.7-19.9 130.1-62.2 19.2-102.7 49.9-102.7 82.3 0 32.5 40.7 63.3 103.1 82.4-14.4 63.6-8 114.2 20.2 130.4 6.5 3.8 14.1 5.6 22.5 5.6 27.5 0 63.5-19.6 99.9-53.6 36.4 33.8 72.4 53.2 99.9 53.2 8.4 0 16-1.8 22.6-5.6 28.1-16.2 34.4-66.7 19.9-130.1 62-19.1 102.5-49.9 102.5-82.3zm-130.2-66.7c-3.7 12.9-8.3 26.2-13.5 39.5-4.1-8-8.4-16-13.1-24-4.6-8-9.5-15.8-14.4-23.4 14.2 2.1 27.9 4.7 41 7.9zm-45.8 106.5c-7.8 13.5-15.8 26.3-24.1 38.2-14.9 1.3-30 2-45.2 2-15.1 0-30.2-.7-45-1.9-8.3-11.9-16.4-24.6-24.2-38-7.6-13.1-14.5-26.4-20.8-39.8 6.2-13.4 13.2-26.8 20.7-39.9 7.8-13.5 15.8-26.3 24.1-38.2 14.9-1.3 30-2 45.2-2 15.1 0 30.2.7 45 1.9 8.3 11.9 16.4 24.6 24.2 38 7.6 13.1 14.5 26.4 20.8 39.8-6.3 13.4-13.2 26.8-20.7 39.9zm32.3-13c5.4 13.4 10 26.8 13.8 39.8-13.1 3.2-26.9 5.9-41.2 8 4.9-7.7 9.8-15.6 14.4-23.7 4.6-8 8.9-16.1 13-24.1zM421.2 430c-9.3-9.6-18.6-20.3-27.8-32 9 .4 18.2.7 27.5.7 9.4 0 18.7-.2 27.8-.7-9 11.7-18.3 22.4-27.5 32zm-74.4-58.9c-14.2-2.1-27.9-4.7-41-7.9 3.7-12.9 8.3-26.2 13.5-39.5 4.1 8 8.4 16 13.1 24 4.7 8 9.5 15.8 14.4 23.4zM420.7 163c9.3 9.6 18.6 20.3 27.8 32-9-.4-18.2-.7-27.5-.7-9.4 0-18.7.2-27.8.7 9-11.7 18.3-22.4 27.5-32zm-74 58.9c-4.9 7.7-9.8 15.6-14.4 23.7-4.6 8-8.9 16-13 24-5.4-13.4-10-26.8-13.8-39.8 13.1-3.1 26.9-5.8 41.2-7.9zm-90.5 125.2c-35.4-15.1-58.3-34.9-58.3-50.6 0-15.7 22.9-35.6 58.3-50.6 8.6-3.7 18-7 27.7-10.1 5.7 19.6 13.2 40 22.5 60.9-9.2 20.8-16.6 41.1-22.2 60.6-9.9-3.1-19.3-6.5-28-10.2zM310 490c-13.6-7.8-19.5-37.5-14.9-75.7 1.1-9.4 2.9-19.3 5.1-29.4 19.6 4.8 41 8.5 63.5 10.9 13.5 18.5 27.5 35.3 41.6 50-32.6 30.3-63.2 46.9-84 46.9-4.5-.1-8.3-1-11.3-2.7zm237.2-76.2c4.7 38.2-1.1 67.9-14.6 75.8-3 1.8-6.9 2.6-11.5 2.6-20.7 0-51.4-16.5-84-46.6 14-14.7 28-31.4 41.3-49.9 22.6-2.4 44-6.1 63.6-11 2.3 10.1 4.1 19.8 5.2 29.1zm38.5-66.7c-8.6 3.7-18 7-27.7 10.1-5.7-19.6-13.2-40-22.5-60.9 9.2-20.8 16.6-41.1 22.2-60.6 9.9 3.1 19.3 6.5 28.1 10.2 35.4 15.1 58.3 34.9 58.3 50.6-.1 15.7-23 35.6-58.4 50.6zM320.8 78.4z"/>-->
        <!--<circle cx="420.9" cy="296.5" r="45.7"/>-->
        <!--<path d="M520.5 78.1z"/>-->
    <!--</g>-->
<!--</svg>-->
<!--<svg xmlns="http://www.w3.org/2000/svg" viewBox="0 0 591.000000 180.000000">-->
<!--<g fill="#61DAFB">-->
    <!--<path d="M1730 1723 c-101 -18 -161 -58 -202 -135 l-23 -43 -3 -643 -3 -644-->
<!--24 -52 c29 -63 66 -100 127 -130 45 -21 46 -21 920 -21 870 0 876 0 1002 23-->
<!--70 13 201 46 290 74 90 27 168 51 173 53 6 1 17 5 25 8 28 11 274 85 405 121-->
<!--224 61 320 79 660 120 22 3 86 12 142 21 138 20 148 20 161 -10 16 -35 47 -32-->
<!--62 6 11 25 43 49 65 49 2 0 5 -15 7 -32 l3 -33 119 0 c173 0 160 -32 164 405-->
<!--2 229 -1 362 -8 389 -18 68 -27 72 -159 69 l-116 -3 -3 -27 c-5 -43 -46 -39-->
<!-- -68 7 -20 42 -45 45 -72 9 l-19 -27 -84 13 c-46 6 -100 14 -119 16 -188 23-->
<!-- -481 68 -545 84 -44 11 -91 23 -105 26 -52 10 -281 77 -435 126 -88 28 -164-->
<!--52 -170 54 -5 1 -53 15 -105 32 -97 31 -240 64 -340 78 -30 4 -64 9 -75 12-->
<!-- -27 6 -1663 11 -1695 5z"/>-->
<!--</g>-->
<!--</svg>-->



<!--<svg version="1.0" xmlns="http://www.w3.org/2000/svg"-->
     <!--width="591.000000pt" height="180.000000pt" viewBox="0 0 600.000000 200.000000"-->
     <!--preserveAspectRatio="xMidYMid meet">-->
    <!--<g transform="translate(0.000000,180.000000) scale(0.100000,-0.100000)"-->
       <!--fill="#762344" stroke="none">-->
        <!--<path d="M1730 1723 c-101 -18 -161 -58 -202 -135 l-23 -43 -3 -643 -3 -644-->
<!--24 -52 c29 -63 66 -100 127 -130 45 -21 46 -21 920 -21 870 0 876 0 1002 23-->
<!--70 13 201 46 290 74 90 27 168 51 173 53 6 1 17 5 25 8 28 11 274 85 405 121-->
<!--224 61 320 79 660 120 22 3 86 12 142 21 138 20 148 20 161 -10 16 -35 47 -32-->
<!--62 6 11 25 43 49 65 49 2 0 5 -15 7 -32 l3 -33 119 0 c173 0 160 -32 164 405-->
<!--2 229 -1 362 -8 389 -18 68 -27 72 -159 69 l-116 -3 -3 -27 c-5 -43 -46 -39-->
 <!-- -68 7 -20 42 -45 45 -72 9 l-19 -27 -84 13 c-46 6 -100 14 -119 16 -188 23-->
 <!-- -481 68 -545 84 -44 11 -91 23 -105 26 -52 10 -281 77 -435 126 -88 28 -164-->
<!--52 -170 54 -5 1 -53 15 -105 32 -97 31 -240 64 -340 78 -30 4 -64 9 -75 12-->
 <!-- -27 6 -1663 11 -1695 5z"/>-->
    <!--</g>-->
<!--</svg>-->


<svg id="svg" xmlns="http://www.w3.org/2000/svg" width="400" height="160"
     viewBox="0, 0, 400,160">
<g id="svgg">
    <path id="path0"
          d="M130.395 17.537 C 125.795 18.960,122.479 21.415,115.099 28.863 C 105.800 38.247,111.066 36.452,62.678 46.729 C 21.331 55.510,24.800 54.992,24.800 52.375 C 24.800 49.366,23.269 49.272,16.721 51.881 C 12.062 53.737,10.745 54.001,10.541 53.120 C 10.185 51.575,7.723 51.717,5.669 53.400 C 3.980 54.784,3.963 55.092,4.180 80.770 L 4.400 106.739 6.645 107.970 C 8.685 109.088,8.980 109.080,9.871 107.886 C 10.766 106.686,11.353 106.782,16.593 108.984 C 22.891 111.630,24.800 111.500,24.800 108.425 C 24.800 105.824,21.765 105.392,57.831 113.133 C 75.084 116.835,92.260 120.473,96.000 121.216 C 105.911 123.186,107.308 123.979,115.442 132.259 C 119.503 136.394,124.440 140.637,126.413 141.688 L 130.000 143.600 203.600 143.600 L 277.200 143.600 281.745 141.470 C 284.821 140.027,287.082 138.244,288.745 135.950 L 291.200 132.560 291.200 80.400 L 291.200 28.240 288.858 25.007 C 287.348 22.922,284.863 20.963,281.858 19.487 L 277.200 17.200 204.800 17.058 C 164.980 16.980,131.498 17.196,130.395 17.537 "
          stroke="none" fill='#123456' fill-rule="evenodd"></path>
</g>
</svg>